<svg width="199" height="56" viewBox="0 0 199 56" fill="none" xmlns="http://www.w3.org/2000/svg">
<g clip-path="url(#clip0)">
<path d="M13.5825 20.024L13.2225 19.88C9.4065 21.392 6.8145 22.4 2.5665 23.768V24.92C3.5745 24.704 4.2225 24.632 5.0865 24.632C6.8865 24.632 7.5345 25.784 7.5345 28.952V46.952C7.5345 50.552 7.0305 51.056 2.4225 51.92V53H19.7025V51.92C14.8065 51.704 13.5825 50.624 13.5825 46.52V30.32C13.5825 28.016 16.6065 24.416 18.6225 24.416C19.0545 24.416 19.7025 24.776 20.4945 25.496C21.6465 26.576 22.4385 26.936 23.3745 26.936C25.1025 26.936 26.1825 25.712 26.1825 23.696C26.1825 21.32 24.6705 19.88 22.2225 19.88C19.1985 19.88 17.1825 21.464 13.5825 26.648V20.024ZM40.335 7.496C40.335 5.48 38.751 3.824 36.663 3.824C34.647 3.824 32.991 5.48 32.991 7.496C32.991 9.584 34.575 11.168 36.591 11.168C38.751 11.168 40.335 9.584 40.335 7.496ZM45.591 53V51.92C40.839 51.56 40.263 50.768 40.263 45.44V20.168L39.975 19.88L28.815 23.84V24.992C30.111 24.632 31.191 24.632 31.839 24.632C33.639 24.632 34.215 25.784 34.215 29.168V45.512C34.215 50.984 33.495 51.632 28.527 51.92V53H45.591ZM58.6461 31.328C56.6301 30.104 55.5501 28.016 55.5501 26.432C55.5501 23.048 57.8541 21.536 60.9501 21.536C65.2701 21.536 67.4301 23.912 69.0861 30.392H70.1661L69.8061 20.6H69.0141C68.4381 21.248 68.1501 21.32 67.8621 21.32C67.3581 21.32 66.6381 21.104 65.8461 20.744C64.3341 20.024 62.7501 19.952 61.0221 19.952C55.1181 19.952 51.0861 23.12 51.0861 28.808C51.0861 32.48 53.7501 35.936 59.7261 39.248L63.6141 41.408C65.9901 42.704 67.4301 44.576 67.4301 46.808C67.4301 49.76 65.1261 52.136 61.4541 52.136C56.4861 52.136 53.8221 48.968 52.3101 41.984H51.1581V53.288H52.0941C52.5261 52.568 52.9581 52.424 53.8221 52.424C54.6141 52.424 55.4061 52.496 57.1341 53.072C58.7901 53.648 60.8781 53.72 62.3901 53.72C67.8621 53.72 72.4701 49.544 72.4701 44.72C72.4701 40.616 70.7421 38.672 66.1341 35.864L58.6461 31.328ZM111.758 53V51.92C108.59 51.704 106.286 50.408 103.334 46.664L92.3184 32.696L94.4064 30.752C103.262 22.544 105.35 21.68 109.958 21.68V20.6H95.2704V21.608C98.0784 21.68 98.8704 21.968 98.8704 22.904C98.8704 23.552 98.2224 24.488 97.2144 25.424L87.3504 34.208V3.968L87.0624 3.824C84.2544 4.688 82.3824 5.264 78.0624 6.416L75.9024 6.992V8.144C76.8384 8.072 77.4864 8 78.2064 8C80.6544 8 81.3024 8.936 81.3024 12.392V47.096C81.3024 50.84 81.0864 51.056 75.9024 51.92V53H92.7504V51.92L91.3104 51.848C88.4304 51.704 87.3504 50.696 87.3504 48.176V34.928L98.1504 49.184C98.7264 49.904 98.9424 50.48 98.9424 50.84C98.9424 51.488 98.2944 51.92 97.4304 51.92H96.0624V53H111.758ZM129.902 53V51.92C125.294 51.632 124.502 50.696 124.502 46.736V4.112L124.142 3.824C120.398 5.048 117.734 5.768 112.766 6.992V8.144C113.918 8 114.854 8 115.43 8C117.734 8 118.454 9.152 118.454 12.608V46.376C118.454 50.336 117.446 51.56 112.91 51.92V53H129.902ZM144.398 7.496C144.398 5.48 142.814 3.824 140.726 3.824C138.71 3.824 137.054 5.48 137.054 7.496C137.054 9.584 138.638 11.168 140.654 11.168C142.814 11.168 144.398 9.584 144.398 7.496ZM149.654 53V51.92C144.902 51.56 144.326 50.768 144.326 45.44V20.168L144.038 19.88L132.878 23.84V24.992C134.174 24.632 135.254 24.632 135.902 24.632C137.702 24.632 138.278 25.784 138.278 29.168V45.512C138.278 50.984 137.558 51.632 132.59 51.92V53H149.654ZM162.709 31.328C160.693 30.104 159.613 28.016 159.613 26.432C159.613 23.048 161.917 21.536 165.013 21.536C169.333 21.536 171.493 23.912 173.149 30.392H174.229L173.869 20.6H173.077C172.501 21.248 172.213 21.32 171.925 21.32C171.421 21.32 170.701 21.104 169.909 20.744C168.397 20.024 166.813 19.952 165.085 19.952C159.181 19.952 155.149 23.12 155.149 28.808C155.149 32.48 157.813 35.936 163.789 39.248L167.677 41.408C170.053 42.704 171.493 44.576 171.493 46.808C171.493 49.76 169.189 52.136 165.517 52.136C160.549 52.136 157.885 48.968 156.373 41.984H155.221V53.288H156.157C156.589 52.568 157.021 52.424 157.885 52.424C158.677 52.424 159.469 52.496 161.197 53.072C162.853 53.648 164.941 53.72 166.453 53.72C171.925 53.72 176.533 49.544 176.533 44.72C176.533 40.616 174.805 38.672 170.197 35.864L162.709 31.328ZM198.05 47.456C196.466 49.328 195.314 49.976 193.73 49.976C191.066 49.976 189.986 48.104 189.986 43.496V22.904H197.258V20.6H189.986V12.248C189.986 11.528 189.842 11.312 189.482 11.312C189.05 12.032 188.474 12.68 188.042 13.328C185.306 17.288 182.93 19.952 181.058 21.032C180.266 21.536 179.834 21.968 179.834 22.4C179.834 22.616 179.906 22.76 180.122 22.904H183.938V44.576C183.938 50.624 186.098 53.72 190.274 53.72C193.874 53.72 196.61 51.992 198.986 48.248L198.05 47.456Z" fill="#1D2070"/>
</g>
<defs>
<clipPath id="clip0">
<rect width="199" height="56" fill="white"/>
</clipPath>
</defs>
</svg>
