<svg width="199" height="56" viewBox="0 0 199 56" fill="none" xmlns="http://www.w3.org/2000/svg">
<g clip-path="url(#clip0)">
<path d="M13.0825 20.024L12.7225 19.88C8.9065 21.392 6.3145 22.4 2.0665 23.768V24.92C3.0745 24.704 3.7225 24.632 4.5865 24.632C6.3865 24.632 7.0345 25.784 7.0345 28.952V46.952C7.0345 50.552 6.5305 51.056 1.9225 51.92V53H19.2025V51.92C14.3065 51.704 13.0825 50.624 13.0825 46.52V30.32C13.0825 28.016 16.1065 24.416 18.1225 24.416C18.5545 24.416 19.2025 24.776 19.9945 25.496C21.1465 26.576 21.9385 26.936 22.8745 26.936C24.6025 26.936 25.6825 25.712 25.6825 23.696C25.6825 21.32 24.1705 19.88 21.7225 19.88C18.6985 19.88 16.6825 21.464 13.0825 26.648V20.024ZM39.835 7.496C39.835 5.48 38.251 3.824 36.163 3.824C34.147 3.824 32.491 5.48 32.491 7.496C32.491 9.584 34.075 11.168 36.091 11.168C38.251 11.168 39.835 9.584 39.835 7.496ZM45.091 53V51.92C40.339 51.56 39.763 50.768 39.763 45.44V20.168L39.475 19.88L28.315 23.84V24.992C29.611 24.632 30.691 24.632 31.339 24.632C33.139 24.632 33.715 25.784 33.715 29.168V45.512C33.715 50.984 32.995 51.632 28.027 51.92V53H45.091ZM58.1461 31.328C56.1301 30.104 55.0501 28.016 55.0501 26.432C55.0501 23.048 57.3541 21.536 60.4501 21.536C64.7701 21.536 66.9301 23.912 68.5861 30.392H69.6661L69.3061 20.6H68.5141C67.9381 21.248 67.6501 21.32 67.3621 21.32C66.8581 21.32 66.1381 21.104 65.3461 20.744C63.8341 20.024 62.2501 19.952 60.5221 19.952C54.6181 19.952 50.5861 23.12 50.5861 28.808C50.5861 32.48 53.2501 35.936 59.2261 39.248L63.1141 41.408C65.4901 42.704 66.9301 44.576 66.9301 46.808C66.9301 49.76 64.6261 52.136 60.9541 52.136C55.9861 52.136 53.3221 48.968 51.8101 41.984H50.6581V53.288H51.5941C52.0261 52.568 52.4581 52.424 53.3221 52.424C54.1141 52.424 54.9061 52.496 56.6341 53.072C58.2901 53.648 60.3781 53.72 61.8901 53.72C67.3621 53.72 71.9701 49.544 71.9701 44.72C71.9701 40.616 70.2421 38.672 65.6341 35.864L58.1461 31.328ZM111.258 53V51.92C108.09 51.704 105.786 50.408 102.834 46.664L91.8184 32.696L93.9064 30.752C102.762 22.544 104.85 21.68 109.458 21.68V20.6H94.7704V21.608C97.5784 21.68 98.3704 21.968 98.3704 22.904C98.3704 23.552 97.7224 24.488 96.7144 25.424L86.8504 34.208V3.968L86.5624 3.824C83.7544 4.688 81.8824 5.264 77.5624 6.416L75.4024 6.992V8.144C76.3384 8.072 76.9864 8 77.7064 8C80.1544 8 80.8024 8.936 80.8024 12.392V47.096C80.8024 50.84 80.5864 51.056 75.4024 51.92V53H92.2504V51.92L90.8104 51.848C87.9304 51.704 86.8504 50.696 86.8504 48.176V34.928L97.6504 49.184C98.2264 49.904 98.4424 50.48 98.4424 50.84C98.4424 51.488 97.7944 51.92 96.9304 51.92H95.5624V53H111.258ZM129.402 53V51.92C124.794 51.632 124.002 50.696 124.002 46.736V4.112L123.642 3.824C119.898 5.048 117.234 5.768 112.266 6.992V8.144C113.418 8 114.354 8 114.93 8C117.234 8 117.954 9.152 117.954 12.608V46.376C117.954 50.336 116.946 51.56 112.41 51.92V53H129.402ZM143.898 7.496C143.898 5.48 142.314 3.824 140.226 3.824C138.21 3.824 136.554 5.48 136.554 7.496C136.554 9.584 138.138 11.168 140.154 11.168C142.314 11.168 143.898 9.584 143.898 7.496ZM149.154 53V51.92C144.402 51.56 143.826 50.768 143.826 45.44V20.168L143.538 19.88L132.378 23.84V24.992C133.674 24.632 134.754 24.632 135.402 24.632C137.202 24.632 137.778 25.784 137.778 29.168V45.512C137.778 50.984 137.058 51.632 132.09 51.92V53H149.154ZM162.209 31.328C160.193 30.104 159.113 28.016 159.113 26.432C159.113 23.048 161.417 21.536 164.513 21.536C168.833 21.536 170.993 23.912 172.649 30.392H173.729L173.369 20.6H172.577C172.001 21.248 171.713 21.32 171.425 21.32C170.921 21.32 170.201 21.104 169.409 20.744C167.897 20.024 166.313 19.952 164.585 19.952C158.681 19.952 154.649 23.12 154.649 28.808C154.649 32.48 157.313 35.936 163.289 39.248L167.177 41.408C169.553 42.704 170.993 44.576 170.993 46.808C170.993 49.76 168.689 52.136 165.017 52.136C160.049 52.136 157.385 48.968 155.873 41.984H154.721V53.288H155.657C156.089 52.568 156.521 52.424 157.385 52.424C158.177 52.424 158.969 52.496 160.697 53.072C162.353 53.648 164.441 53.72 165.953 53.72C171.425 53.72 176.033 49.544 176.033 44.72C176.033 40.616 174.305 38.672 169.697 35.864L162.209 31.328ZM197.55 47.456C195.966 49.328 194.814 49.976 193.23 49.976C190.566 49.976 189.486 48.104 189.486 43.496V22.904H196.758V20.6H189.486V12.248C189.486 11.528 189.342 11.312 188.982 11.312C188.55 12.032 187.974 12.68 187.542 13.328C184.806 17.288 182.43 19.952 180.558 21.032C179.766 21.536 179.334 21.968 179.334 22.4C179.334 22.616 179.406 22.76 179.622 22.904H183.438V44.576C183.438 50.624 185.598 53.72 189.774 53.72C193.374 53.72 196.11 51.992 198.486 48.248L197.55 47.456Z" fill="white"/>
</g>
<defs>
<clipPath id="clip0">
<rect width="199" height="56" fill="white"/>
</clipPath>
</defs>
</svg>
